<svg width="131" height="37" viewBox="0 0 131 37" fill="none" xmlns="http://www.w3.org/2000/svg">
<g clip-path="url(#clip0_0_3)">
<path d="M92.3465 16.3105H80.6842L82.9816 12.3309L92.3482 12.3244V16.3105H92.3465ZM88.1787 16.3105C87.3065 20.7893 83.5544 24.1651 79.074 24.1651C73.4662 24.1651 68.9367 19.4524 69.2395 13.7791C69.5111 8.70309 73.7493 4.59255 78.8318 4.46982C80.3225 4.43382 81.7429 4.73164 83.0209 5.29291L84.9584 1.93673C82.4335 0.627636 79.452 0.131818 76.3233 0.789636C70.272 2.06109 65.682 7.23527 65.286 13.406C64.7705 21.4487 71.1409 28.1333 79.074 28.1333C84.1451 28.1333 88.5535 25.1829 90.7969 20.8449L88.1787 16.3105Z" fill="black"/>
<path d="M126.956 27.5704V17.816C126.956 14.8918 125.185 13.1229 122.878 13.1229C121.84 13.1229 120.705 13.388 119.762 14.0049L122.315 9.58345C122.809 9.482 123.287 9.428 123.716 9.428C128.255 9.428 130.948 12.4667 130.911 17.5836V27.5687H126.957L126.956 27.5704ZM114.097 11.7124V27.5704H118.051V9.42964L114.097 11.7124Z" fill="black"/>
<path d="M3.95345 1.06291H0V27.5704H3.95345V1.06291ZM22.8158 1.06291H18.8624V27.5704H22.8158V1.06291Z" fill="black"/>
<path d="M16.8611 13.4731L7.614 8.13527C6.966 7.76054 6.15437 8.22854 6.15437 8.978V19.6553C6.15437 20.4047 6.96437 20.8727 7.614 20.498L16.8611 15.1602C17.5091 14.7855 17.5091 13.8495 16.8611 13.4747V13.4731Z" fill="#A34CDB"/>
<path d="M53.7693 20.3769L56.0667 24.3565L49.0549 36.5H44.46L51.4718 24.3565L43.1787 9.99255H47.7736L53.7693 20.3769ZM64.3598 9.99255H59.7649L53.7693 20.3769H58.3642L64.3598 9.99255Z" fill="black"/>
<path d="M32.1513 27.7896C35.1573 28.5964 38.0013 27.9255 40.1629 26.3676L38.2958 23.1342C37.3205 23.9393 36.0736 24.4253 34.7105 24.4253C32.2102 24.4253 30.0927 22.7971 29.3498 20.5455H43.8905C44.0002 19.9727 44.0624 19.3836 44.0624 18.7798C44.0624 13.6155 39.8749 9.428 34.7105 9.428C32.0564 9.428 29.6656 10.5391 27.9622 12.3162L29.9487 15.7558C30.9502 14.1816 32.706 13.1344 34.7105 13.1344C37.2076 13.1344 39.3235 14.7576 40.068 17.006H25.5322C25.1149 19.1791 25.38 21.5993 27.1309 24.152C28.3336 25.9062 30.0976 27.2382 32.1513 27.7896Z" fill="black"/>
<path d="M100.216 27.7896C103.222 28.5964 106.066 27.9255 108.227 26.3676L106.36 23.1342C105.385 23.9393 104.138 24.4253 102.775 24.4253C100.275 24.4253 98.1573 22.7971 97.4144 20.5455H111.955C112.065 19.9727 112.127 19.3836 112.127 18.7798C112.127 13.6155 107.939 9.428 102.775 9.428C100.121 9.428 97.7302 10.5391 96.0267 12.3162L98.0133 15.7558C99.0147 14.1816 100.771 13.1344 102.775 13.1344C105.272 13.1344 107.388 14.7576 108.133 17.006H93.5967C93.1794 19.1791 93.4445 21.5993 95.1955 24.152C96.3982 25.9062 98.1622 27.2382 100.216 27.7896Z" fill="black"/>
</g>
<defs>
<clipPath id="clip0_0_3">
<rect width="130.909" height="36" fill="white" transform="translate(0 0.5)"/>
</clipPath>
</defs>
</svg>
